<?xml version="1.0" standalone="no"?>
<!DOCTYPE svg PUBLIC "-//W3C//DTD SVG 20010904//EN"
 "http://www.w3.org/TR/2001/REC-SVG-20010904/DTD/svg10.dtd">
<svg version="1.0" xmlns="http://www.w3.org/2000/svg"
 width="114.000000pt" height="114.000000pt" viewBox="0 0 114.000000 114.000000"
 preserveAspectRatio="xMidYMid meet">
<metadata>
Created by potrace 1.11, written by Peter Selinger 2001-2013
</metadata>
<g transform="translate(0.000000,114.000000) scale(0.100000,-0.100000)"
fill="#000000" stroke="none">
<path d="M836 943 c-4 -4 -53 -8 -109 -9 -68 0 -116 -6 -145 -17 -40 -15 -44
-15 -77 4 -42 25 -76 20 -111 -18 -25 -27 -33 -93 -15 -122 9 -14 -26 -111
-41 -111 -4 0 -24 11 -45 26 -27 18 -45 23 -63 19 -56 -14 -94 -81 -70 -124 7
-15 8 -27 0 -40 -5 -11 -11 -31 -12 -45 -2 -18 -11 -28 -32 -36 -70 -24 -90
-90 -40 -129 29 -23 92 -28 125 -10 16 8 29 6 57 -7 20 -9 60 -18 90 -20 30
-2 69 -8 88 -14 33 -11 34 -12 27 -53 -4 -23 -7 -53 -7 -67 l-1 -25 200 -22
c110 -12 208 -20 217 -17 10 3 43 25 73 50 52 43 55 47 55 92 0 42 4 49 30 64
43 24 50 65 17 94 l-27 23 26 55 c28 62 35 160 15 209 -6 16 -11 31 -11 35 0
4 -12 25 -27 47 -17 25 -28 54 -28 77 -2 58 -45 98 -105 98 -26 0 -50 -3 -54
-7z m24 -62 c65 -34 107 -68 141 -114 16 -22 29 -43 29 -47 0 -3 -14 -5 -30
-2 -20 3 -37 -2 -50 -13 -19 -17 -21 -17 -41 9 -16 21 -26 25 -47 20 -76 -18
-69 -88 18 -188 l25 -29 -75 7 c-41 4 -90 9 -108 13 l-33 5 22 24 c33 35 38
111 9 147 -15 19 -31 27 -52 27 -32 0 -68 -24 -68 -45 0 -7 -13 -9 -35 -7 -70
8 -88 -48 -32 -106 26 -28 29 -33 12 -30 -14 2 -21 -3 -23 -19 -2 -13 -7 -23
-11 -23 -5 0 -11 -18 -15 -39 -5 -31 -11 -40 -33 -46 -21 -5 -31 -1 -45 17
-52 68 -63 200 -24 283 29 63 110 137 179 165 74 29 222 24 287 -9z m8 -236
c6 -14 8 -25 3 -25 -4 0 -13 11 -19 25 -6 14 -8 25 -3 25 4 0 13 -11 19 -25z
m182 -68 c-5 -31 -14 -65 -20 -74 -9 -14 -10 -11 -4 16 4 22 2 36 -7 41 -10 7
-9 14 4 34 9 14 17 33 17 43 0 11 3 14 10 7 6 -6 6 -30 0 -67z m-703 13 c1
-43 16 -84 61 -172 2 -5 -3 -8 -10 -8 -8 0 -25 -11 -38 -25 -20 -21 -21 -27
-9 -41 13 -16 10 -17 -33 -12 -118 13 -186 138 -125 229 26 39 90 79 127 79
23 0 25 -4 27 -50z m224 17 c12 -22 12 -22 -10 -3 -11 11 -21 23 -21 28 0 14
19 -1 31 -25z"/>
</g>
</svg>
